<?xml version="1.0" encoding="UTF-8"?>
<!DOCTYPE svg PUBLIC "-//W3C//DTD SVG 1.1//EN" "http://www.w3.org/Graphics/SVG/1.1/DTD/svg11.dtd">
<!-- Creator: CorelDRAW -->
<svg xmlns="http://www.w3.org/2000/svg" xml:space="preserve" width="180mm" height="57.2764mm" version="1.1" style="shape-rendering:geometricPrecision; text-rendering:geometricPrecision; image-rendering:optimizeQuality; fill-rule:evenodd; clip-rule:evenodd"
viewBox="0 0 17934.4 5706.77"
 xmlns:xlink="http://www.w3.org/1999/xlink"
 xmlns:xodm="http://www.corel.com/coreldraw/odm/2003">
 <defs>
  <style type="text/css">
   <![CDATA[
    .fil2 {fill:#4E4E4E}
    .fil0 {fill:#FEFEFE;fill-rule:nonzero}
    .fil1 {fill:#32AFC8;fill-rule:nonzero}
   ]]>
  </style>
 </defs>
 <g id="Capa_x0020_1">
  <metadata id="CorelCorpID_0Corel-Layer"/>
  <rect class="fil0" x="-0" y="-0" width="17934.41" height="5706.77"/>
  <path class="fil1" d="M6360.99 3886.63l0 -656.79 273.04 0 337.31 673.09c13.32,26.61 54.13,32.35 80.95,32.28l382.21 -0.77c26.32,-0.07 68.26,-5.46 68.26,-40.18 0,-7.63 -3.07,-16.32 -7.62,-25.51l-399.98 -751.01c179.33,-107.51 301.66,-310.3 301.66,-568.61 0,-413.16 -304.69,-680.67 -649.13,-680.67l-858.54 0c-22.39,0 -40.24,19.35 -40.24,43.27l0 1974.9c0,34.92 41.01,46.41 69.33,46.48l359.09 1.62c31.23,0.14 83.66,-7.22 83.66,-48.1zm9110.46 478.79c39.19,0 93.07,-0.32 111.17,-39.26l1136.13 -2443.54c4.13,-8.92 7.7,-18.69 7.7,-28.34 0,-84.79 -669.27,-118.22 -679.03,-95.13l-577.93 1363.53 -579.88 -1363.53c-12.86,-30.41 -694.55,-3.36 -694.55,85.18 0,7.7 4.33,19.07 9.63,30.2l1153.54 2451.63c17.79,37.69 68.18,39.26 113.2,39.26zm-3164.2 -398.33c37.74,0 71.86,0 71.86,-45.8l0 -2006.45c0,-31.32 -32.35,-45.24 -58.7,-45.24l-397.68 0c-31.44,0 -55.67,21.99 -55.67,45.24l0 1052.13 -1125.52 -1113.27c-22.42,-19.39 -58.07,-19.39 -94.26,-19.39 -37.17,0 -72.82,0 -72.82,44.81l0 2007.52c0,35.35 39.77,46.71 68.9,46.91l360 -0.5c31.18,-0.06 81.58,-7.76 81.58,-47.96l0 -1026.66 1128.61 1089.35c20.86,19.32 58.05,19.32 93.69,19.32zm698.4 -31.51c44.11,-3 75.11,-11.6 83.54,-32.07l108.67 -264.26 771.13 0 107.16 264.26c9.91,24.04 38.92,29.84 61.83,29.88l472.85 0.68c23.23,-8.4 37.1,-20.67 37.1,-38.28 0,-6.19 -1.04,-13.39 -5.71,-21.15l-970.48 -2028.49c-14.93,-29.86 -51.44,-29.86 -89.07,-29.86 -37.63,0 -75.2,0 -90.64,29.86l-968.93 2026.98c-4.15,9.28 -5.71,16.48 -5.71,22.67 0,23.88 22.64,34.44 58.51,38.6l429.74 1.2zm580.14 -1186.95l202.43 470.82 -404.92 0 202.49 -470.82zm-11637.32 1186.95c54.34,-3.7 92.51,-14.31 102.91,-39.53l133.87 -325.53 949.92 0 132.04 325.53c12.2,29.61 47.93,36.78 76.15,36.85l582.51 0.83c28.61,-10.33 45.71,-25.49 45.71,-47.18 0,-7.61 -1.29,-16.48 -7.01,-26.05l-1195.53 -2498.85c-18.38,-36.77 -63.4,-36.77 -109.74,-36.77 -46.35,0 -92.65,0 -111.68,36.77l-1193.58 2497.01c-5.1,11.42 -7.01,20.29 -7.01,27.9 0,29.43 27.9,42.44 72.08,47.57l529.37 1.46zm714.65 -1462.18l249.38 580.01 -498.81 0 249.43 -580.01zm1476.65 1461.1l1361.38 0c64.21,0 65.72,-125.33 65.72,-247.61 0,-125.34 -1.51,-249.66 -67.25,-249.66l-888.06 1.51 0 -352.05 735.73 0c61.14,0 62.67,-109.03 62.67,-218.07 0,-107.5 -1.53,-216.53 -62.67,-216.53l-735.73 0 0 -287.88 889.6 0c64.21,0 65.72,-123.8 65.72,-249.16 0,-124.32 -1.51,-246.58 -65.72,-246.58l-1361.38 1.51c-22.42,0 -40.25,17.83 -40.25,41.79l0 1979.4c0,22.42 17.83,43.32 40.25,43.32zm2531.51 -1197.35l-310.29 0 0 -372.96 310.29 0c102.87,0 185.43,83.54 185.43,186.49 0,102.94 -82.56,186.47 -185.43,186.47z"/>
  <path class="fil2" d="M8956.09 4207.68c181.31,0 354.12,-36.34 511.4,-102.03l-1022.58 0c157.21,65.62 329.88,102.03 511.18,102.03zm716.02 -209.44c36.13,-23.24 71.15,-48.18 104.76,-74.72l-1641.27 0c33.61,26.53 68.56,51.47 104.69,74.72l1431.82 0zm183.96 -142.51c87.25,-80.8 163.44,-173.17 225.97,-274.71 25.56,-0.21 50.91,-0.49 75.84,3.08 11.55,-3.22 54.76,-82.21 57.91,-94.88 1.12,-7.35 1.12,-13.66 -3.15,-20.03l-43.77 -55.18c29.62,-68.84 53.57,-140.76 71.01,-215.05 25.21,-6.24 47.89,-11.77 57.07,-15.33 9.52,-3.16 20.03,-9.46 23.18,-18.98 5.32,-12.6 12.67,-68.48 13.73,-83.26 1.05,-8.41 2.09,-17.86 -3.16,-25.29l-61.55 -40.4c3.3,-37.6 5.04,-75.69 5.04,-114.21 0,-38.23 -1.81,-76.12 -5.04,-113.51 30.54,-18.13 59.1,-35.29 62.61,-42.71 5.25,-12.67 -6.31,-92.71 -11.63,-108.54 -3.15,-7.42 -7.35,-12.67 -15.75,-14.78l-64.77 -18.41c-17.37,-73.53 -40.97,-144.6 -70.31,-212.81 11.7,-13.51 22.76,-27.1 31.79,-40.61 7.35,-11.63 16.88,-20.03 14.71,-34.8 -2.1,-7.35 -43.2,-88.52 -48.46,-91.66 -18.97,-11.63 -50.56,0 -71.63,0l-12.89 0.35c-39.28,-63.8 -83.95,-124.02 -133.39,-180.03 14.99,-33.69 29.26,-66.46 25.07,-82.71 -1.06,-4.26 -5.25,-9.53 -7.35,-12.67 -5.25,-7.35 -59.03,-59.03 -64.28,-62.18 -4.2,-3.15 -8.41,-5.25 -13.73,-4.2l-75.83 28.23c-55.47,-46.99 -114.77,-89.63 -177.59,-127.1 2.03,-29.97 3.37,-60.02 -0.49,-89.78 -15.82,-13.65 -90.68,-55.81 -107.49,-50.56 -13.02,7 -39.36,30.46 -65.83,53.3 -66.03,-27.17 -134.8,-49.3 -205.74,-65.69l-26.67 -87.74c-21.08,-6.31 -105.39,-26.33 -121.22,-13.66l-47.76 71.43c-34.45,-2.73 -69.26,-4.07 -104.42,-4.07 -35.85,0 -71.28,1.4 -106.43,4.2l-52.24 -75.76c0,0 0,0 -112.75,15.75l-27.45 89.56c-70.86,16.32 -139.42,38.3 -205.39,65.4l-62.25 -49.58c-6.3,-5.25 -13.65,-5.25 -21.07,-3.15 -4.2,1.06 -73.74,37.95 -80.04,42.16 -25.36,17.92 -11.63,29.48 -10.58,51.61 0,15.12 0.42,30.25 0.85,45.37 -63.24,37.67 -122.97,80.32 -178.71,127.59 -24.16,-11.07 -48.32,-21.99 -67.65,-25.43 -4.19,-1.05 -9.52,-3.15 -13.72,-2.1 0,0 0,0 -82.21,83.27l27.59 77.59c-49.65,56.3 -94.67,116.8 -134.1,181.02l-18.84 -0.42c-18.97,0 -42.16,-10.57 -61.13,-2.1 -7.42,3.15 -50.63,84.31 -52.74,94.81 -2.1,8.41 2.1,15.83 6.38,23.19l40.4 50.14c-29.48,68.41 -53.29,139.77 -70.72,213.58 -29.48,7 -59.1,14.57 -68.77,20.79 -7.35,4.2 -10.57,12.67 -12.67,21.08 -3.15,11.62 -13.66,75.9 -13.66,86.41 0,8.47 4.2,13.72 9.46,18.97 9.04,9.04 31.79,22.98 56.09,37.6 -3.23,37.39 -5.04,75.15 -5.04,113.38 0,38.31 1.81,76.19 5.04,113.65 -32.49,20.03 -62.96,39.57 -65.55,50.49 8.41,29.48 3.16,101.12 30.54,114.84 13.79,7.35 38.51,13.17 64.42,18.91 17.51,74.65 41.59,146.84 71.42,215.96 -17.23,18.77 -34.1,37.6 -44.18,54.9 -3.16,4.2 -5.26,8.48 -4.2,14.78 1.05,5.25 36.91,78.01 42.16,84.31 17.92,25.28 29.55,11.56 51.68,11.56l39.91 -1.13c62.6,102.03 139.07,194.82 226.53,275.97l1799.6 0zm-498.03 -1356.05c-282.41,-280.25 -758.73,-194.95 -920,169.68 -200.21,451.03 228.7,926.3 696.61,772.45 400.42,-130.67 523.72,-643.9 223.38,-942.13z"/>
 </g>
</svg>
